<svg width="70" height="62" fill="none" xmlns="http://www.w3.org/2000/svg"><path d="M65.898 51.78a5.998 5.998 0 01-5.843 5.997l-.155.002H10.1a5.998 5.998 0 01-5.998-5.998V16.576h61.796V51.78zM70 14.526a2.05 2.05 0 00-2.051-2.05H2.051A2.05 2.05 0 000 14.524V51.78c0 5.578 4.522 10.1 10.1 10.1h49.93c5.518-.07 9.97-4.566 9.97-10.1V14.525z" fill="#ED1C24"/><path d="M45.305 12.475h-20.61V8.29a4.18 4.18 0 014.178-4.07h12.253a4.18 4.18 0 014.179 4.178v4.076zm4.101-4.076a8.28 8.28 0 00-8.28-8.28H28.873a8.28 8.28 0 00-8.28 8.173v6.286a2.05 2.05 0 002.05 1.998h24.765a2.05 2.05 0 001.998-2.05V8.398zM0 14.526c0 13.35 12.471 23.822 27.983 26.227a2.05 2.05 0 00.628-4.053C14.156 34.459 4.1 25.028 4.1 14.526a2.05 2.05 0 00-4.101 0zm65.898 0c0 10.42-9.898 19.785-24.17 22.12l-.339.054-.052.008a2.05 2.05 0 00.628 4.052l.053-.007.363-.058C57.723 38.185 70 27.771 70 14.525a2.05 2.05 0 00-4.103 0z" fill="#ED1C24"/><path d="M39.653 39.236a4.652 4.652 0 11-9.305 0v-4.652h9.305v4.652zm4.101-6.703a2.05 2.05 0 00-2.05-2.05H28.296a2.05 2.05 0 00-2.05 2.05v6.703A8.754 8.754 0 0035 47.99a8.754 8.754 0 008.754-8.754v-6.703z" fill="#ED1C24"/></svg>