<svg width="70" height="54" fill="none" xmlns="http://www.w3.org/2000/svg"><path d="M39.82 22.803a1.931 1.931 0 00-1.932-1.931H6.033a1.931 1.931 0 00-1.931 1.93v8.466a1.93 1.93 0 001.93 1.931h31.856a1.931 1.931 0 001.931-1.931v-8.465zm0-16.43a1.931 1.931 0 00-1.932-1.93H6.033a1.931 1.931 0 00-1.931 1.93v8.466a1.93 1.93 0 001.93 1.93h31.907a1.931 1.931 0 001.881-1.93V6.374zm4.1 8.466a6.01 6.01 0 01-1.5 3.982 6.01 6.01 0 011.5 3.982v8.465a6.033 6.033 0 01-6.032 6.033H6.033A6.033 6.033 0 010 31.268v-8.465a6.01 6.01 0 011.501-3.982A6.01 6.01 0 010 14.839V6.374A6.033 6.033 0 016.033.34h31.855a6.033 6.033 0 016.033 6.033v8.465z" fill="#ED1C24"/><path d="M0 47.697v-8.465a6.033 6.033 0 016.033-6.033h31.855a6.03 6.03 0 015.332 3.209 9.536 9.536 0 00-1.35-18.977v-4.102c7.532 0 13.638 6.106 13.638 13.638 0 6.835-5.028 12.495-11.587 13.484v7.246a6.033 6.033 0 01-6.033 6.032H6.033A6.033 6.033 0 010 47.698zm4.102 0a1.93 1.93 0 001.93 1.93h31.856a1.931 1.931 0 001.931-1.93v-8.465a1.931 1.931 0 00-1.93-1.931H6.032a1.931 1.931 0 00-1.931 1.93v8.466z" fill="#ED1C24"/><path d="M50.812.341a2.051 2.051 0 011.556.205l7.134 4.119a2.05 2.05 0 01.75 2.801l-1.844 3.195c-.184.32-.13.7.088.935l.105.114a22.617 22.617 0 014.889 8.506c.112.361.43.581.764.581h3.695A2.05 2.05 0 0170 22.848v8.237a2.05 2.05 0 01-2.05 2.051h-3.696a.807.807 0 00-.764.581 22.623 22.623 0 01-4.994 8.62v.001a.794.794 0 00-.104.905l.016.03 1.844 3.194a2.05 2.05 0 01-.75 2.802l-7.134 4.118a2.051 2.051 0 01-2.801-.75l-1.848-3.201a.78.78 0 00-.806-.39l-.028.007a22.693 22.693 0 01-5.015.558v-4.102c1.414 0 2.79-.158 4.11-.457l.098-.021c2.04-.417 4.088.525 5.142 2.269l.05.085.823 1.425 3.582-2.068-.819-1.418c-1.042-1.806-.848-4.108.561-5.696l.069-.076a18.521 18.521 0 004.089-7.056 4.908 4.908 0 014.68-3.461h1.643v-4.136h-1.644a4.908 4.908 0 01-4.68-3.46v-.001a18.517 18.517 0 00-4.089-7.057c-1.47-1.59-1.688-3.937-.629-5.771l.819-1.418-3.582-2.068-.822 1.425c-1.055 1.826-3.187 2.808-5.291 2.332a18.595 18.595 0 00-4.109-.457l-.002-4.101a22.626 22.626 0 014.86.524l.155.034.03.006a.78.78 0 00.805-.39l1.848-3.2.026-.044a2.05 2.05 0 011.219-.912zM35 41.39l.053.001a2.05 2.05 0 010 4.1l-.053.001h-8.237a2.05 2.05 0 010-4.101H35zm0-16.474a2.05 2.05 0 010 4.102h-8.237a2.05 2.05 0 010-4.102H35zm0-16.475a2.05 2.05 0 010 4.102h-8.237a2.05 2.05 0 010-4.102H35zm-24.712 4.102c1.073 0 2.1-.943 2.05-2.05-.049-1.112-.9-2.052-2.05-2.052-1.073 0-2.1.944-2.05 2.051.05 1.111.9 2.051 2.05 2.051zm8.237 0c1.073 0 2.1-.943 2.051-2.05-.05-1.112-.9-2.052-2.05-2.052-1.073 0-2.101.944-2.051 2.051.05 1.111.9 2.051 2.05 2.051zm-8.237 16.475c1.073 0 2.1-.944 2.05-2.051-.049-1.111-.9-2.051-2.05-2.051-1.073 0-2.1.943-2.05 2.05.05 1.112.9 2.052 2.05 2.052zm8.237 0c1.073 0 2.1-.944 2.051-2.051-.05-1.111-.9-2.051-2.05-2.051-1.073 0-2.101.943-2.051 2.05.05 1.112.9 2.052 2.05 2.052zm-8.237 16.474c1.073 0 2.1-.943 2.05-2.05-.049-1.112-.9-2.051-2.05-2.051-1.073 0-2.1.943-2.05 2.05.05 1.111.9 2.051 2.05 2.051zm8.237 0c1.073 0 2.1-.943 2.051-2.05-.05-1.112-.9-2.051-2.05-2.051-1.073 0-2.101.943-2.051 2.05.05 1.111.9 2.051 2.05 2.051z" fill="#ED1C24"/></svg>