<svg width="70" height="70" fill="none" xmlns="http://www.w3.org/2000/svg"><path d="M67.95 32.95h-3.668c-.484-7.07-3.468-13.648-8.526-18.706S44.12 6.202 37.051 5.717V2.051a2.05 2.05 0 00-4.102 0v3.666c-7.068.485-13.647 3.469-18.705 8.526-5.058 5.059-8.042 11.638-8.526 18.706H2.05a2.05 2.05 0 000 4.102h3.667c.484 7.068 3.468 13.647 8.526 18.705 5.058 5.058 11.637 8.042 18.705 8.526v3.667a2.05 2.05 0 004.102 0v-3.666c7.068-.485 13.647-3.469 18.705-8.526 5.058-5.059 8.042-11.638 8.526-18.706h3.667a2.05 2.05 0 000-4.102zm-7.781 0h-4.077c-.97-10.052-8.99-18.072-19.041-19.042V9.831c12.292.993 22.125 10.826 23.118 23.118zM35 52.09c-9.423 0-17.09-7.667-17.09-17.09S25.577 17.91 35 17.91 52.09 25.577 52.09 35 44.423 52.09 35 52.09zM32.95 9.83v4.077c-10.052.97-18.072 8.99-19.042 19.041H9.831c.993-12.292 10.826-22.125 23.118-23.118zM9.83 37.051h4.077c.97 10.051 8.99 18.071 19.041 19.04v4.078C20.657 59.176 10.824 49.343 9.831 37.05zm27.22 23.118v-4.077c10.051-.97 18.071-8.99 19.04-19.041h4.078c-.993 12.292-10.826 22.125-23.118 23.118z" fill="#ED1C24"/><path d="M39.996 32.42a6.117 6.117 0 001.157-3.584A6.16 6.16 0 0035 22.684a6.16 6.16 0 00-6.152 6.152c0 1.337.43 2.574 1.157 3.584a8.919 8.919 0 00-3.925 7.387v3.68a2.05 2.05 0 002.05 2.052h13.74a2.05 2.05 0 002.05-2.051v-3.68a8.918 8.918 0 00-3.924-7.388zm-7.046-3.584c0-1.13.92-2.05 2.05-2.05 1.131 0 2.051.92 2.051 2.05s-.92 2.05-2.05 2.05a2.053 2.053 0 01-2.051-2.05zm6.87 12.601h-9.638v-1.63A4.824 4.824 0 0135 34.988a4.824 4.824 0 014.82 4.82v1.629z" fill="#ED1C24"/></svg>