<svg width="70" height="70" fill="none" xmlns="http://www.w3.org/2000/svg"><path d="M22.012 65.898H4.238v-.683a6.152 6.152 0 016.153-6.153h5.468a6.152 6.152 0 016.153 6.153v.683zm4.101-.683c0-5.663-4.59-10.254-10.254-10.254h-5.468C4.728 54.96.137 59.55.137 65.215v2.787A2.05 2.05 0 002.187 70h21.928a2.05 2.05 0 001.998-2.051v-2.734z" fill="#ED1C24"/><path d="M43.887 65.898H26.113v-.683a6.152 6.152 0 016.153-6.153h5.468a6.152 6.152 0 016.153 6.153v.683zm4.101-.683c0-5.663-4.59-10.254-10.254-10.254h-5.468c-5.663 0-10.254 4.59-10.254 10.254v2.787A2.051 2.051 0 0024.062 70H45.99a2.05 2.05 0 001.998-2.051v-2.734z" fill="#ED1C24"/><path d="M65.762 65.898H47.988v-.683a6.152 6.152 0 016.153-6.153h5.468a6.152 6.152 0 016.153 6.153v.683zm4.101-.683c0-5.663-4.59-10.254-10.254-10.254h-5.468c-5.664 0-10.254 4.59-10.254 10.254v2.787A2.05 2.05 0 0045.937 70h21.928a2.05 2.05 0 001.998-2.051v-2.734zM17.91 50.176a4.785 4.785 0 11-9.57 0 4.785 4.785 0 019.57 0zm4.102 0a8.887 8.887 0 10-17.774 0 8.887 8.887 0 0017.774 0zm17.773 0a4.785 4.785 0 11-9.57 0 4.785 4.785 0 019.57 0zm4.102 0a8.887 8.887 0 10-17.774 0 8.887 8.887 0 0017.774 0z" fill="#ED1C24"/><path d="M61.66 50.176a4.785 4.785 0 11-9.57 0 4.785 4.785 0 019.57 0zm4.102 0a8.887 8.887 0 10-17.774 0 8.887 8.887 0 0017.774 0zm-51.27-13.262h.053a2.05 2.05 0 001.998-2.05c0-10.194 8.263-18.458 18.457-18.458 10.193 0 18.457 8.264 18.457 18.457v.053a2.05 2.05 0 002.05 1.998h12.358a2.05 2.05 0 001.998-2.05V26.66a2.05 2.05 0 00-2.05-2.05h-3.817a30.586 30.586 0 00-1.236-3.006l2.692-2.692a2.05 2.05 0 000-2.9L53.852 4.41a2.05 2.05 0 00-2.9 0l-2.693 2.692a30.582 30.582 0 00-3.005-1.236V2.05A2.05 2.05 0 0043.203 0H26.797a2.05 2.05 0 00-2.051 2.05v3.817c-1.026.36-2.03.771-3.006 1.236L19.05 4.41a2.05 2.05 0 00-2.9 0L4.546 16.01a2.05 2.05 0 000 2.9l2.692 2.693c-.464.976-.876 1.98-1.236 3.005H2.187a2.05 2.05 0 00-2.05 2.051v8.256a2.05 2.05 0 002.05 1.998h12.305zM4.238 28.71h3.256l.084-.002a2.05 2.05 0 001.881-1.463 26.483 26.483 0 012.085-5.064 2.05 2.05 0 00-.353-2.427l-2.293-2.293 8.7-8.7 2.294 2.293.061.058a2.05 2.05 0 002.366.295 26.48 26.48 0 015.063-2.085 2.05 2.05 0 001.465-1.966V4.102h12.305v3.255a2.05 2.05 0 001.465 1.966 26.48 26.48 0 015.064 2.085l.075.038a2.05 2.05 0 002.352-.391L52.4 8.76l8.7 8.7-2.292 2.294a2.05 2.05 0 00-.353 2.427 26.482 26.482 0 012.084 5.064l.026.08a2.05 2.05 0 001.94 1.385h3.256v4.101h-8.296C56.43 21.315 46.767 12.305 35 12.305c-11.768 0-21.43 9.01-22.466 20.507H4.238v-4.101z" fill="#ED1C24"/><path d="M22.695 36.914h.053a2.05 2.05 0 001.998-2.05c0-5.664 4.59-10.255 10.254-10.255 5.663 0 10.254 4.591 10.254 10.254v.053a2.05 2.05 0 002.05 1.998h8.257a2.05 2.05 0 000-4.101H49.21c-.995-6.958-6.978-12.305-14.21-12.305-7.232 0-13.215 5.348-14.21 12.304h-6.298a2.05 2.05 0 100 4.102h8.203z" fill="#ED1C24"/></svg>