<svg width="70" height="70" fill="none" xmlns="http://www.w3.org/2000/svg"><g clip-path="url(#clip0_607_6985)" fill="#ED1C24"><path d="M45.997 25.238l-5.9-1.645-3.388-5.103c-.783-1.213-2.635-1.213-3.417 0l-3.388 5.103-5.9 1.645a2.051 2.051 0 00-1.056 3.25l3.807 4.799-.26 6.12a2.05 2.05 0 002.765 2.008L35 39.277l5.74 2.138a2.05 2.05 0 002.765-2.009l-.259-6.12 3.807-4.798a2.05 2.05 0 00-1.056-3.25zm-6.438 6.098a2.046 2.046 0 00-.443 1.361l.16 3.796-3.56-1.326a2.05 2.05 0 00-1.431 0l-3.561 1.326.16-3.796a2.051 2.051 0 00-.442-1.361l-2.361-2.977 3.66-1.02a2.05 2.05 0 001.158-.841L35 23.332l2.102 3.166c.272.41.683.709 1.158.84l3.66 1.021-2.361 2.977z"/><path d="M69.4 54.074l-8-7.999C73.413 26.148 58.406-.228 35.001.002 11.597-.23-3.415 26.152 8.6 46.075l-8 8a2.05 2.05 0 00.802 3.395l8.347 2.782 2.781 8.346a2.051 2.051 0 003.396.801l9.667-9.666c5.874 1.962 12.938 1.962 18.813 0l9.667 9.666a2.05 2.05 0 003.396-.801l2.782-8.346 8.346-2.782a2.05 2.05 0 00.801-3.396zM15.373 64.153l-2.058-6.172a2.051 2.051 0 00-1.296-1.297l-6.172-2.057 5.102-5.1a31.037 31.037 0 0010.518 8.532l-6.094 6.094zM35 57.113c-14.615 0-26.505-11.89-26.505-26.505 1.456-35.163 51.559-35.152 53.01 0 0 14.614-11.89 26.504-26.505 26.504zm22.98-.428a2.051 2.051 0 00-1.296 1.296l-2.058 6.172-6.094-6.094a31.037 31.037 0 0010.519-8.533l5.101 5.101-6.171 2.057z"/><path d="M35 8.787c-12.031 0-21.82 9.789-21.82 21.82 1.2 28.947 42.446 28.939 43.64 0 0-12.031-9.788-21.82-21.82-21.82zm0 39.538c-9.77 0-17.718-7.948-17.718-17.718.973-23.506 34.467-23.499 35.437 0 0 9.77-7.948 17.718-17.718 17.718z"/></g><defs><clipPath id="clip0_607_6985"><path fill="#fff" d="M0 0h70v70H0z"/></clipPath></defs></svg>