<svg width="70" height="70" fill="none" xmlns="http://www.w3.org/2000/svg"><g clip-path="url(#clip0_607_6943)" fill="#ED1C24"><path d="M15.609 48.542a3.851 3.851 0 10-7.702 0 3.851 3.851 0 007.702 0zm4.101 0a7.952 7.952 0 11-15.905 0 7.952 7.952 0 0115.905 0z"/><path d="M19.414 64.151a7.656 7.656 0 00-15.312 0V65.9h15.312v-1.75zm4.102 3.788v.01a2.05 2.05 0 01-1.998 2.05l-.053.001H2.051A2.05 2.05 0 010 67.95v-3.8c0-6.493 5.264-11.758 11.758-11.758 6.493 0 11.758 5.264 11.758 11.758v3.788zm38.577-19.397a3.851 3.851 0 10-7.702 0 3.851 3.851 0 007.702 0zm4.102 0a7.952 7.952 0 11-15.905 0 7.952 7.952 0 0115.905 0z"/><path d="M65.898 64.151a7.656 7.656 0 10-15.312 0V65.9h15.312v-1.75zM70 67.94v.01A2.05 2.05 0 0168.002 70H48.535a2.05 2.05 0 01-2.05-2.05v-3.8c0-6.493 5.264-11.758 11.757-11.758C64.736 52.393 70 57.657 70 64.151v3.788zM38.851 7.953a3.851 3.851 0 10-7.702 0 3.851 3.851 0 007.702 0zm4.102 0a7.952 7.952 0 11-15.905 0 7.952 7.952 0 0115.905 0z"/><path d="M20.739 8.291a2.05 2.05 0 01.851 4.012h.005s-.006 0-.015.003l-.097.024a9.763 9.763 0 00-.436.123c-.39.12-.962.315-1.647.614a17.65 17.65 0 00-4.896 3.183c-2.864 2.648-5.679 7.106-5.59 14.64l2.03-1.823.04-.035a2.05 2.05 0 012.7 3.087l-5.132 4.607c-.779.7-1.96.7-2.74 0l-5.13-4.607a2.05 2.05 0 012.74-3.052l1.391 1.25C4.87 22 8.072 16.61 11.72 13.237a21.726 21.726 0 016.042-3.932 19.693 19.693 0 012.085-.775 13.824 13.824 0 01.86-.233l.019-.004.007-.002h.003s.003-.001.425 1.994l-.422-1.995zM46.83 9.873a2.05 2.05 0 012.431-1.582l-.422 1.995c.422-1.995.425-1.994.425-1.994h.003l.007.002.02.004a5.983 5.983 0 01.238.058c.152.038.362.095.621.175a19.71 19.71 0 012.085.775 21.73 21.73 0 016.042 3.932c3.649 3.373 6.85 8.762 6.908 17.078l1.391-1.249a2.05 2.05 0 012.74 3.052l-5.132 4.607c-.779.7-1.96.7-2.74 0l-5.131-4.607-.04-.035a2.05 2.05 0 012.74-3.052l.04.035 2.03 1.822c.088-7.533-2.725-11.991-5.59-14.639a17.625 17.625 0 00-4.896-3.183 15.59 15.59 0 00-1.647-.614 9.763 9.763 0 00-.533-.147l-.016-.004h.004l.002.001a2.05 2.05 0 01-1.58-2.43zM42.656 23.56a7.656 7.656 0 00-15.312 0v1.747h15.312V23.56zm4.102 3.798a2.05 2.05 0 01-2.051 2.051H25.293a2.05 2.05 0 01-2.05-2.05V23.56c0-6.493 5.263-11.758 11.757-11.758s11.758 5.265 11.758 11.758v3.798zM38.903 39.14a2.187 2.187 0 113.093 3.094L30.86 53.371a2.187 2.187 0 11-3.093-3.093L38.903 39.14z"/><path d="M30.86 39.14a2.187 2.187 0 10-3.094 3.094l11.137 11.137a2.187 2.187 0 103.093-3.093L30.86 39.14z"/></g><defs><clipPath id="clip0_607_6943"><path fill="#fff" d="M0 0h70v70H0z"/></clipPath></defs></svg>