<svg width="80" height="74" fill="none" xmlns="http://www.w3.org/2000/svg"><mask id="a" maskUnits="userSpaceOnUse" x="0" y="0" width="80" height="74" fill="#000"><path fill="#fff" d="M0 0h80v74H0z"/><path d="M72.846 8.011a22.533 22.533 0 00-7.171-5.053 22.756 22.756 0 00-17.263-.496 22.57 22.57 0 00-7.456 4.632l-.986.922c-8.547-8.965-22.822-9.38-31.886-.928-9.066 8.453-9.485 22.574-.94 31.539l2.222 2.328a6.446 6.446 0 00.785 6.5 6.573 6.573 0 002.703 2.082 6.649 6.649 0 003.396.457 6.411 6.411 0 00.143 3.034c.29.986.813 1.889 1.526 2.636a6.558 6.558 0 002.572 1.659 6.618 6.618 0 003.053.317 6.41 6.41 0 00.144 3.033 6.46 6.46 0 001.525 2.636 6.556 6.556 0 002.572 1.658 6.617 6.617 0 003.053.318 6.469 6.469 0 00.534 3.995 6.564 6.564 0 002.802 2.924 6.666 6.666 0 007.687-.981c7.42-6.928 7.187-6.583 7.888-7.75a6.628 6.628 0 006.718-.545 6.509 6.509 0 002.2-2.69 6.43 6.43 0 00.492-3.424 6.63 6.63 0 003.064-.152 6.589 6.589 0 002.66-1.512 6.492 6.492 0 001.676-2.542c.348-.967.46-2 .326-3.018a6.669 6.669 0 004.059-.54 6.573 6.573 0 002.956-2.802 6.47 6.47 0 00.717-3.988 6.504 6.504 0 00-1.798-3.64 22.071 22.071 0 00.027-30.609zM12.521 46.265a3.953 3.953 0 01-1.091-2.84 3.958 3.958 0 011.255-2.774l6.76-6.314a4.04 4.04 0 012.862-1.052 4.034 4.034 0 012.782 1.244 3.947 3.947 0 011.094 2.82 3.951 3.951 0 01-1.228 2.764l-6.76 6.314a4.043 4.043 0 01-2.871 1.08 4.037 4.037 0 01-2.803-1.242zm7.295 7.646a3.95 3.95 0 01-1.092-2.84 3.955 3.955 0 011.256-2.774l6.76-6.314a4.053 4.053 0 014.397-.734 3.969 3.969 0 012.108 2.21 3.932 3.932 0 01-.996 4.299l-6.76 6.315a4.044 4.044 0 01-2.872 1.075 4.038 4.038 0 01-2.801-1.244v.007zm7.293 7.645a3.951 3.951 0 01-1.09-2.84 3.957 3.957 0 011.255-2.773l6.76-6.314a4.04 4.04 0 012.835-.982 4.032 4.032 0 012.73 1.238 3.946 3.946 0 011.097 2.766 3.947 3.947 0 01-1.151 2.744l-6.76 6.313a4.04 4.04 0 01-2.872 1.083 4.035 4.035 0 01-2.804-1.242v.007zm12.969 7.808a4.04 4.04 0 01-2.872 1.08 4.034 4.034 0 01-2.803-1.243 3.946 3.946 0 01-1.093-2.84 3.952 3.952 0 011.258-2.773l6.76-6.315a4.04 4.04 0 012.862-1.051 4.034 4.034 0 012.782 1.243 3.947 3.947 0 011.094 2.82 3.95 3.95 0 01-1.228 2.765l-6.76 6.314zm30.75-23.297a4.012 4.012 0 01-2.87 1.085 4.038 4.038 0 01-2.802-1.247L47.831 27.748a1.307 1.307 0 00-1.838-.053 1.28 1.28 0 00-.053 1.819l17.328 18.155a3.946 3.946 0 011.094 2.84 3.951 3.951 0 01-1.257 2.773 4.039 4.039 0 01-2.87 1.081 4.034 4.034 0 01-2.804-1.243L40.104 34.962a1.3 1.3 0 00-.909-.403 1.313 1.313 0 00-.93.35 1.286 1.286 0 00-.407.898 1.271 1.271 0 00.354.92l17.322 18.154a3.937 3.937 0 01.228 5.185 4.017 4.017 0 01-2.395 1.434 4.047 4.047 0 01-2.76-.467 6.422 6.422 0 00-.184-2.716 6.469 6.469 0 00-1.295-2.403 6.555 6.555 0 00-2.176-1.666 6.622 6.622 0 00-2.676-.637c-1.43-.037-.91.498-.874-.917a6.476 6.476 0 00-.43-2.517 6.528 6.528 0 00-1.37-2.163 6.61 6.61 0 00-2.104-1.48 6.67 6.67 0 00-2.516-.569c-1.43-.045-.916.515-.874-.917a6.475 6.475 0 00-.43-2.517 6.53 6.53 0 00-1.37-2.163 6.614 6.614 0 00-2.105-1.479 6.676 6.676 0 00-2.516-.57c-1.439-.04-.916.526-.873-.916a6.496 6.496 0 00-1.015-3.66 6.601 6.601 0 00-2.895-2.488 6.687 6.687 0 00-3.804-.483 6.65 6.65 0 00-3.437 1.684c-9.296 8.678-6.088 5.687-6.781 6.334l-1.844-1.929C1.478 28.93 1.85 16.44 9.87 8.96c8.02-7.478 20.648-7.108 28.208.824L27.43 19.73a5.312 5.312 0 00-1.657 3.648c-.13 5.282 7.812 8.607 12.665 4.064l9.704-9.058a1.302 1.302 0 01.93-.351 1.314 1.314 0 01.908.402l21.012 22.023a3.93 3.93 0 01-.164 5.61zm.223-9.297L51.87 16.668a3.934 3.934 0 00-5.514-.157l-9.705 9.06c-.51.477-1.11.849-1.767 1.095a5.384 5.384 0 01-4.087-.125 5.329 5.329 0 01-1.696-1.2 2.643 2.643 0 01-.728-1.897 2.623 2.623 0 01.844-1.849l13.52-12.631c7.831-7.332 20.134-7.187 27.785.328a19.586 19.586 0 01.528 27.478z"/></mask><path d="M72.846 8.011a22.533 22.533 0 00-7.171-5.053 22.756 22.756 0 00-17.263-.496 22.57 22.57 0 00-7.456 4.632l-.986.922c-8.547-8.965-22.822-9.38-31.886-.928-9.066 8.453-9.485 22.574-.94 31.539l2.222 2.328a6.446 6.446 0 00.785 6.5 6.573 6.573 0 002.703 2.082 6.649 6.649 0 003.396.457 6.411 6.411 0 00.143 3.034c.29.986.813 1.889 1.526 2.636a6.558 6.558 0 002.572 1.659 6.618 6.618 0 003.053.317 6.41 6.41 0 00.144 3.033 6.46 6.46 0 001.525 2.636 6.556 6.556 0 002.572 1.658 6.617 6.617 0 003.053.318 6.469 6.469 0 00.534 3.995 6.564 6.564 0 002.802 2.924 6.666 6.666 0 007.687-.981c7.42-6.928 7.187-6.583 7.888-7.75a6.628 6.628 0 006.718-.545 6.509 6.509 0 002.2-2.69 6.43 6.43 0 00.492-3.424 6.63 6.63 0 003.064-.152 6.589 6.589 0 002.66-1.512 6.492 6.492 0 001.676-2.542c.348-.967.46-2 .326-3.018a6.669 6.669 0 004.059-.54 6.573 6.573 0 002.956-2.802 6.47 6.47 0 00.717-3.988 6.504 6.504 0 00-1.798-3.64 22.071 22.071 0 00.027-30.609zM12.521 46.265a3.953 3.953 0 01-1.091-2.84 3.958 3.958 0 011.255-2.774l6.76-6.314a4.04 4.04 0 012.862-1.052 4.034 4.034 0 012.782 1.244 3.947 3.947 0 011.094 2.82 3.951 3.951 0 01-1.228 2.764l-6.76 6.314a4.043 4.043 0 01-2.871 1.08 4.037 4.037 0 01-2.803-1.242zm7.295 7.646a3.95 3.95 0 01-1.092-2.84 3.955 3.955 0 011.256-2.774l6.76-6.314a4.053 4.053 0 014.397-.734 3.969 3.969 0 012.108 2.21 3.932 3.932 0 01-.996 4.299l-6.76 6.315a4.044 4.044 0 01-2.872 1.075 4.038 4.038 0 01-2.801-1.244v.007zm7.293 7.645a3.951 3.951 0 01-1.09-2.84 3.957 3.957 0 011.255-2.773l6.76-6.314a4.04 4.04 0 012.835-.982 4.032 4.032 0 012.73 1.238 3.946 3.946 0 011.097 2.766 3.947 3.947 0 01-1.151 2.744l-6.76 6.313a4.04 4.04 0 01-2.872 1.083 4.035 4.035 0 01-2.804-1.242v.007zm12.969 7.808a4.04 4.04 0 01-2.872 1.08 4.034 4.034 0 01-2.803-1.243 3.946 3.946 0 01-1.093-2.84 3.952 3.952 0 011.258-2.773l6.76-6.315a4.04 4.04 0 012.862-1.051 4.034 4.034 0 012.782 1.243 3.947 3.947 0 011.094 2.82 3.95 3.95 0 01-1.228 2.765l-6.76 6.314zm30.75-23.297a4.012 4.012 0 01-2.87 1.085 4.038 4.038 0 01-2.802-1.247L47.831 27.748a1.307 1.307 0 00-1.838-.053 1.28 1.28 0 00-.053 1.819l17.328 18.155a3.946 3.946 0 011.094 2.84 3.951 3.951 0 01-1.257 2.773 4.039 4.039 0 01-2.87 1.081 4.034 4.034 0 01-2.804-1.243L40.104 34.962a1.3 1.3 0 00-.909-.403 1.313 1.313 0 00-.93.35 1.286 1.286 0 00-.407.898 1.271 1.271 0 00.354.92l17.322 18.154a3.937 3.937 0 01.228 5.185 4.017 4.017 0 01-2.395 1.434 4.047 4.047 0 01-2.76-.467 6.422 6.422 0 00-.184-2.716 6.469 6.469 0 00-1.295-2.403 6.555 6.555 0 00-2.176-1.666 6.622 6.622 0 00-2.676-.637c-1.43-.037-.91.498-.874-.917a6.476 6.476 0 00-.43-2.517 6.528 6.528 0 00-1.37-2.163 6.61 6.61 0 00-2.104-1.48 6.67 6.67 0 00-2.516-.569c-1.43-.045-.916.515-.874-.917a6.475 6.475 0 00-.43-2.517 6.53 6.53 0 00-1.37-2.163 6.614 6.614 0 00-2.105-1.479 6.676 6.676 0 00-2.516-.57c-1.439-.04-.916.526-.873-.916a6.496 6.496 0 00-1.015-3.66 6.601 6.601 0 00-2.895-2.488 6.687 6.687 0 00-3.804-.483 6.65 6.65 0 00-3.437 1.684c-9.296 8.678-6.088 5.687-6.781 6.334l-1.844-1.929C1.478 28.93 1.85 16.44 9.87 8.96c8.02-7.478 20.648-7.108 28.208.824L27.43 19.73a5.312 5.312 0 00-1.657 3.648c-.13 5.282 7.812 8.607 12.665 4.064l9.704-9.058a1.302 1.302 0 01.93-.351 1.314 1.314 0 01.908.402l21.012 22.023a3.93 3.93 0 01-.164 5.61zm.223-9.297L51.87 16.668a3.934 3.934 0 00-5.514-.157l-9.705 9.06c-.51.477-1.11.849-1.767 1.095a5.384 5.384 0 01-4.087-.125 5.329 5.329 0 01-1.696-1.2 2.643 2.643 0 01-.728-1.897 2.623 2.623 0 01.844-1.849l13.52-12.631c7.831-7.332 20.134-7.187 27.785.328a19.586 19.586 0 01.528 27.478z" fill="#ED1C24"/><path d="M72.846 8.011a22.533 22.533 0 00-7.171-5.053 22.756 22.756 0 00-17.263-.496 22.57 22.57 0 00-7.456 4.632l-.986.922c-8.547-8.965-22.822-9.38-31.886-.928-9.066 8.453-9.485 22.574-.94 31.539l2.222 2.328a6.446 6.446 0 00.785 6.5 6.573 6.573 0 002.703 2.082 6.649 6.649 0 003.396.457 6.411 6.411 0 00.143 3.034c.29.986.813 1.889 1.526 2.636a6.558 6.558 0 002.572 1.659 6.618 6.618 0 003.053.317 6.41 6.41 0 00.144 3.033 6.46 6.46 0 001.525 2.636 6.556 6.556 0 002.572 1.658 6.617 6.617 0 003.053.318 6.469 6.469 0 00.534 3.995 6.564 6.564 0 002.802 2.924 6.666 6.666 0 007.687-.981c7.42-6.928 7.187-6.583 7.888-7.75a6.628 6.628 0 006.718-.545 6.509 6.509 0 002.2-2.69 6.43 6.43 0 00.492-3.424 6.63 6.63 0 003.064-.152 6.589 6.589 0 002.66-1.512 6.492 6.492 0 001.676-2.542c.348-.967.46-2 .326-3.018a6.669 6.669 0 004.059-.54 6.573 6.573 0 002.956-2.802 6.47 6.47 0 00.717-3.988 6.504 6.504 0 00-1.798-3.64 22.071 22.071 0 00.027-30.609zM12.521 46.265a3.953 3.953 0 01-1.091-2.84 3.958 3.958 0 011.255-2.774l6.76-6.314a4.04 4.04 0 012.862-1.052 4.034 4.034 0 012.782 1.244 3.947 3.947 0 011.094 2.82 3.951 3.951 0 01-1.228 2.764l-6.76 6.314a4.043 4.043 0 01-2.871 1.08 4.037 4.037 0 01-2.803-1.242zm7.295 7.646a3.95 3.95 0 01-1.092-2.84 3.955 3.955 0 011.256-2.774l6.76-6.314a4.053 4.053 0 014.397-.734 3.969 3.969 0 012.108 2.21 3.932 3.932 0 01-.996 4.299l-6.76 6.315a4.044 4.044 0 01-2.872 1.075 4.038 4.038 0 01-2.801-1.244v.007zm7.293 7.645a3.951 3.951 0 01-1.09-2.84 3.957 3.957 0 011.255-2.773l6.76-6.314a4.04 4.04 0 012.835-.982 4.032 4.032 0 012.73 1.238 3.946 3.946 0 011.097 2.766 3.947 3.947 0 01-1.151 2.744l-6.76 6.313a4.04 4.04 0 01-2.872 1.083 4.035 4.035 0 01-2.804-1.242v.007zm12.969 7.808a4.04 4.04 0 01-2.872 1.08 4.034 4.034 0 01-2.803-1.243 3.946 3.946 0 01-1.093-2.84 3.952 3.952 0 011.258-2.773l6.76-6.315a4.04 4.04 0 012.862-1.051 4.034 4.034 0 012.782 1.243 3.947 3.947 0 011.094 2.82 3.95 3.95 0 01-1.228 2.765l-6.76 6.314zm30.75-23.297a4.012 4.012 0 01-2.87 1.085 4.038 4.038 0 01-2.802-1.247L47.831 27.748a1.307 1.307 0 00-1.838-.053 1.28 1.28 0 00-.053 1.819l17.328 18.155a3.946 3.946 0 011.094 2.84 3.951 3.951 0 01-1.257 2.773 4.039 4.039 0 01-2.87 1.081 4.034 4.034 0 01-2.804-1.243L40.104 34.962a1.3 1.3 0 00-.909-.403 1.313 1.313 0 00-.93.35 1.286 1.286 0 00-.407.898 1.271 1.271 0 00.354.92l17.322 18.154a3.937 3.937 0 01.228 5.185 4.017 4.017 0 01-2.395 1.434 4.047 4.047 0 01-2.76-.467 6.422 6.422 0 00-.184-2.716 6.469 6.469 0 00-1.295-2.403 6.555 6.555 0 00-2.176-1.666 6.622 6.622 0 00-2.676-.637c-1.43-.037-.91.498-.874-.917a6.476 6.476 0 00-.43-2.517 6.528 6.528 0 00-1.37-2.163 6.61 6.61 0 00-2.104-1.48 6.67 6.67 0 00-2.516-.569c-1.43-.045-.916.515-.874-.917a6.475 6.475 0 00-.43-2.517 6.53 6.53 0 00-1.37-2.163 6.614 6.614 0 00-2.105-1.479 6.676 6.676 0 00-2.516-.57c-1.439-.04-.916.526-.873-.916a6.496 6.496 0 00-1.015-3.66 6.601 6.601 0 00-2.895-2.488 6.687 6.687 0 00-3.804-.483 6.65 6.65 0 00-3.437 1.684c-9.296 8.678-6.088 5.687-6.781 6.334l-1.844-1.929C1.478 28.93 1.85 16.44 9.87 8.96c8.02-7.478 20.648-7.108 28.208.824L27.43 19.73a5.312 5.312 0 00-1.657 3.648c-.13 5.282 7.812 8.607 12.665 4.064l9.704-9.058a1.302 1.302 0 01.93-.351 1.314 1.314 0 01.908.402l21.012 22.023a3.93 3.93 0 01-.164 5.61zm.223-9.297L51.87 16.668a3.934 3.934 0 00-5.514-.157l-9.705 9.06c-.51.477-1.11.849-1.767 1.095a5.384 5.384 0 01-4.087-.125 5.329 5.329 0 01-1.696-1.2 2.643 2.643 0 01-.728-1.897 2.623 2.623 0 01.844-1.849l13.52-12.631c7.831-7.332 20.134-7.187 27.785.328a19.586 19.586 0 01.528 27.478z" stroke="#ED1C24" mask="url(#a)"/></svg>