<svg width="80" height="80" fill="none" xmlns="http://www.w3.org/2000/svg"><path d="M42.878 49.097l.021.004a61.158 61.158 0 0118.385 6.401h0a4.159 4.159 0 011.87 1.975v.002l.338.789c1.642 4 2.495 8.79 2.94 12.714.474 4.191.485 7.418.485 7.684l-.008.155c-.01.104-.03.206-.06.305l-.053.146a1.584 1.584 0 01-.716.79l-.14.067c-.145.06-.297.098-.452.113l-.155.008H1.334c-.156 0-.311-.023-.46-.068l-.146-.053a1.582 1.582 0 01-.79-.716l-.068-.14a1.585 1.585 0 01-.12-.607l.009-.724a78.35 78.35 0 01.476-6.96c.474-4.186 1.413-9.357 3.279-13.504v0l.157-.312a4.16 4.16 0 011.412-1.492l.303-.174a61.194 61.194 0 0118.374-6.395l.022-.003h.246c.119.002.237.018.353.046h.034l.072.014.02.006.02.009a.933.933 0 01.099.06c.104.044.202.099.293.165h0a1.5 1.5 0 01.09.067l.084.073.009.008-.175.17.175-.17c.085.088.16.185.222.29h0c.03.043.058.088.084.135l.053.08.004.008h-.001l7.868 19.11 7.863-19.115.008-.018a.361.361 0 01.036-.058h0a1.45 1.45 0 01.094-.15l.102-.15a1.5 1.5 0 01.118-.135l.009-.009.085-.074.09-.069a1.65 1.65 0 01.306-.168v-.002l.02-.012.034-.023a.397.397 0 01.064-.03h.002l.073-.017c.021-.003.037-.003.043-.003h.005a1.54 1.54 0 01.343-.042v-.001h.25zm5.29 13.069l.031.106c.055.212.065.434.03.65l-.022.108c-.059.25-.178.482-.346.675l-.075.081-4.869 4.87v6.009l-.004.11a1.584 1.584 0 01-.774 1.262l-.098.053-1.996.993H63.71c-.139-3.567-.752-12.314-3.444-18.303l-.085-.147a1.018 1.018 0 00-.38-.331l-.003-.003a62.517 62.517 0 00-14.781-5.582l3.15 9.449zm-26.52-9.45A62.532 62.532 0 006.868 58.3l-.005.002a1.027 1.027 0 00-.464.478c-2.695 5.997-3.306 14.738-3.443 18.304h23.666l-1.996-.993a1.58 1.58 0 01-.876-1.425v-6.01l-4.87-4.869a1.584 1.584 0 01-.392-.65l-.028-.106a1.583 1.583 0 01.039-.864l3.15-9.45zm13.146 21.227l-.001.001c-.162.388-.47.696-.858.858l-.045.018h-.02a1.582 1.582 0 01-.387.09l-.15.006c-.186 0-.37-.034-.545-.099h-.016l-.046-.018a1.587 1.587 0 01-.859-.859l-.057-.138.003-.005-7.656-18.594-2.345 7.036 4.641 4.64.106.117c.23.282.358.636.358 1.003v5.689l6.416 3.207 6.417-3.207v-5.689c0-.42.166-.821.462-1.118h0l4.64-4.643-2.343-7.035-7.715 18.74z" fill="#ED1C24" stroke="#ED1C24" stroke-width=".5"/><path d="M33.495 54.424a1.584 1.584 0 011.422 1.575v1.334l-.008.156a1.58 1.58 0 01-.351.847l-.106.116c-.26.26-.6.42-.963.456l-.156.007a1.583 1.583 0 01-1.583-1.582v-1.334l.008-.156c.036-.363.196-.703.456-.963l.116-.106c.282-.23.636-.358 1.003-.358l.162.008zM58.828 7.449a1.584 1.584 0 011.422 1.575v7.946c.637.232 1.218.6 1.698 1.08.48.482.847 1.062 1.08 1.699h6.408l.155.008a1.586 1.586 0 01.965.456l.104.116c.099.12.179.255.238.398l.053.147c.045.149.068.303.068.459l-.008.162a1.584 1.584 0 01-1.575 1.421H63.03a4.651 4.651 0 01-4.848 3.055h-.001a4.65 4.65 0 01-4.128-3.95l-.025-.205a4.65 4.65 0 013.055-4.848V9.024c0-.42.167-.822.464-1.119l.116-.105c.282-.23.636-.359 1.003-.359l.162.008zm-.312 12.4a1.497 1.497 0 00-1.302 1.487l.008.15c.075.74.69 1.321 1.447 1.342a1.497 1.497 0 001.488-1.494v-.012l-.009-.151a1.498 1.498 0 00-1.324-1.325l-.151-.01h-.007l-.15.013z" fill="#ED1C24" stroke="#ED1C24" stroke-width=".5"/><mask id="a" maskUnits="userSpaceOnUse" x="16.329" y="-1" width="65" height="54" fill="#000"><path fill="#fff" d="M16.329-1h65v54h-65z"/><path d="M77.14 10.667A21.333 21.333 0 0058.875 0h-.208a21.334 21.334 0 00-18.472 10.667 20.74 20.74 0 00-1.241 2.575C37.24 12 35.655 12 30.666 12c-5.466 0-8.517 4.49-9.847 7.164a7.834 7.834 0 00-.82 3.53v5.609c-1.286.55-2.666 1.965-2.666 5.03a5.097 5.097 0 004.459 5.26 28.62 28.62 0 012.11 5.875 4.027 4.027 0 001.706 2.655l6.253 4.16c.89.597 2.053.597 2.944 0l6.267-4.164a4.034 4.034 0 001.7-2.656 28.658 28.658 0 012.116-5.883c.316-.06.629-.142.933-.247A21.858 21.858 0 0048 39.805C58.202 45.695 71.246 42.2 77.138 32a21.334 21.334 0 00.005-21.333h-.002zM42.8 36.737a34.133 34.133 0 00-2.667 7.248 1.386 1.386 0 01-.559.918l-6.241 4.164-6.243-4.16a1.379 1.379 0 01-.564-.916 34.101 34.101 0 00-2.666-7.254A1.335 1.335 0 0022.666 36 2.507 2.507 0 0120 33.333c0-2.453 1.142-2.652 1.333-2.666a1.332 1.332 0 001.333-1.334v-6.64a5.185 5.185 0 01.54-2.34c1.06-2.124 3.431-5.686 7.46-5.686 6.092 0 6.092 0 7.922 1.806l.47.47a1.332 1.332 0 00.942.39c.163 0 4 .06 4 5.334v6.666a1.318 1.318 0 001.184 1.303.882.882 0 00.112.03c.228.015 1.37.214 1.37 2.667a2.275 2.275 0 01-1.269 2.297A3.584 3.584 0 0144 36a1.333 1.333 0 00-1.2.737zm26.303.018l-.058-.1a1.334 1.334 0 10-2.31 1.333l.078.133A18.67 18.67 0 0160 39.904v-.11a1.333 1.333 0 10-2.667 0v.11a18.403 18.403 0 01-7.992-2.4c-.4-.233-.78-.48-1.152-.733a5.256 5.256 0 001.144-3.438c0-3.066-1.38-4.48-2.666-5.03v-5.636c0-5.334-3.1-7.356-5.453-7.86.202-.55.43-1.088.686-1.615l.111.066a1.333 1.333 0 101.334-2.31l-.101-.058a18.74 18.74 0 014.98-4.978l.057.1a1.333 1.333 0 002.31-1.333l-.08-.134a18.591 18.591 0 016.822-1.828v.155a1.333 1.333 0 002.667 0v-.156c2.368.172 4.683.792 6.82 1.83l-.078.133a1.335 1.335 0 001.823 1.826c.203-.119.37-.289.487-.493l.058-.1a18.77 18.77 0 014.98 4.978l-.102.058a1.333 1.333 0 101.333 2.31l.133-.08A18.573 18.573 0 0177.283 20h-.155a1.333 1.333 0 100 2.667h.154a18.578 18.578 0 01-1.825 6.821l-.133-.079a1.333 1.333 0 10-1.334 2.31l.102.057a18.751 18.751 0 01-4.983 4.979h-.006z"/></mask><path d="M77.14 10.667A21.333 21.333 0 0058.875 0h-.208a21.334 21.334 0 00-18.472 10.667 20.74 20.74 0 00-1.241 2.575C37.24 12 35.655 12 30.666 12c-5.466 0-8.517 4.49-9.847 7.164a7.834 7.834 0 00-.82 3.53v5.609c-1.286.55-2.666 1.965-2.666 5.03a5.097 5.097 0 004.459 5.26 28.62 28.62 0 012.11 5.875 4.027 4.027 0 001.706 2.655l6.253 4.16c.89.597 2.053.597 2.944 0l6.267-4.164a4.034 4.034 0 001.7-2.656 28.658 28.658 0 012.116-5.883c.316-.06.629-.142.933-.247A21.858 21.858 0 0048 39.805C58.202 45.695 71.246 42.2 77.138 32a21.334 21.334 0 00.005-21.333h-.002zM42.8 36.737a34.133 34.133 0 00-2.667 7.248 1.386 1.386 0 01-.559.918l-6.241 4.164-6.243-4.16a1.379 1.379 0 01-.564-.916 34.101 34.101 0 00-2.666-7.254A1.335 1.335 0 0022.666 36 2.507 2.507 0 0120 33.333c0-2.453 1.142-2.652 1.333-2.666a1.332 1.332 0 001.333-1.334v-6.64a5.185 5.185 0 01.54-2.34c1.06-2.124 3.431-5.686 7.46-5.686 6.092 0 6.092 0 7.922 1.806l.47.47a1.332 1.332 0 00.942.39c.163 0 4 .06 4 5.334v6.666a1.318 1.318 0 001.184 1.303.882.882 0 00.112.03c.228.015 1.37.214 1.37 2.667a2.275 2.275 0 01-1.269 2.297A3.584 3.584 0 0144 36a1.333 1.333 0 00-1.2.737zm26.303.018l-.058-.1a1.334 1.334 0 10-2.31 1.333l.078.133A18.67 18.67 0 0160 39.904v-.11a1.333 1.333 0 10-2.667 0v.11a18.403 18.403 0 01-7.992-2.4c-.4-.233-.78-.48-1.152-.733a5.256 5.256 0 001.144-3.438c0-3.066-1.38-4.48-2.666-5.03v-5.636c0-5.334-3.1-7.356-5.453-7.86.202-.55.43-1.088.686-1.615l.111.066a1.333 1.333 0 101.334-2.31l-.101-.058a18.74 18.74 0 014.98-4.978l.057.1a1.333 1.333 0 002.31-1.333l-.08-.134a18.591 18.591 0 016.822-1.828v.155a1.333 1.333 0 002.667 0v-.156c2.368.172 4.683.792 6.82 1.83l-.078.133a1.335 1.335 0 001.823 1.826c.203-.119.37-.289.487-.493l.058-.1a18.77 18.77 0 014.98 4.978l-.102.058a1.333 1.333 0 101.333 2.31l.133-.08A18.573 18.573 0 0177.283 20h-.155a1.333 1.333 0 100 2.667h.154a18.578 18.578 0 01-1.825 6.821l-.133-.079a1.333 1.333 0 10-1.334 2.31l.102.057a18.751 18.751 0 01-4.983 4.979h-.006z" fill="#ED1C24"/><path d="M77.14 10.667A21.333 21.333 0 0058.875 0h-.208a21.334 21.334 0 00-18.472 10.667 20.74 20.74 0 00-1.241 2.575C37.24 12 35.655 12 30.666 12c-5.466 0-8.517 4.49-9.847 7.164a7.834 7.834 0 00-.82 3.53v5.609c-1.286.55-2.666 1.965-2.666 5.03a5.097 5.097 0 004.459 5.26 28.62 28.62 0 012.11 5.875 4.027 4.027 0 001.706 2.655l6.253 4.16c.89.597 2.053.597 2.944 0l6.267-4.164a4.034 4.034 0 001.7-2.656 28.658 28.658 0 012.116-5.883c.316-.06.629-.142.933-.247A21.858 21.858 0 0048 39.805C58.202 45.695 71.246 42.2 77.138 32a21.334 21.334 0 00.005-21.333h-.002zM42.8 36.737a34.133 34.133 0 00-2.667 7.248 1.386 1.386 0 01-.559.918l-6.241 4.164-6.243-4.16a1.379 1.379 0 01-.564-.916 34.101 34.101 0 00-2.666-7.254A1.335 1.335 0 0022.666 36 2.507 2.507 0 0120 33.333c0-2.453 1.142-2.652 1.333-2.666a1.332 1.332 0 001.333-1.334v-6.64a5.185 5.185 0 01.54-2.34c1.06-2.124 3.431-5.686 7.46-5.686 6.092 0 6.092 0 7.922 1.806l.47.47a1.332 1.332 0 00.942.39c.163 0 4 .06 4 5.334v6.666a1.318 1.318 0 001.184 1.303.882.882 0 00.112.03c.228.015 1.37.214 1.37 2.667a2.275 2.275 0 01-1.269 2.297A3.584 3.584 0 0144 36a1.333 1.333 0 00-1.2.737zm26.303.018l-.058-.1a1.334 1.334 0 10-2.31 1.333l.078.133A18.67 18.67 0 0160 39.904v-.11a1.333 1.333 0 10-2.667 0v.11a18.403 18.403 0 01-7.992-2.4c-.4-.233-.78-.48-1.152-.733a5.256 5.256 0 001.144-3.438c0-3.066-1.38-4.48-2.666-5.03v-5.636c0-5.334-3.1-7.356-5.453-7.86.202-.55.43-1.088.686-1.615l.111.066a1.333 1.333 0 101.334-2.31l-.101-.058a18.74 18.74 0 014.98-4.978l.057.1a1.333 1.333 0 002.31-1.333l-.08-.134a18.591 18.591 0 016.822-1.828v.155a1.333 1.333 0 002.667 0v-.156c2.368.172 4.683.792 6.82 1.83l-.078.133a1.335 1.335 0 001.823 1.826c.203-.119.37-.289.487-.493l.058-.1a18.77 18.77 0 014.98 4.978l-.102.058a1.333 1.333 0 101.333 2.31l.133-.08A18.573 18.573 0 0177.283 20h-.155a1.333 1.333 0 100 2.667h.154a18.578 18.578 0 01-1.825 6.821l-.133-.079a1.333 1.333 0 10-1.334 2.31l.102.057a18.751 18.751 0 01-4.983 4.979h-.006z" stroke="#ED1C24" mask="url(#a)"/></svg>