<svg width="68" height="80" fill="none" xmlns="http://www.w3.org/2000/svg"><path d="M57.833.75c.86 0 1.56.692 1.56 1.55v1.05h3.678l.215.005c2.206.113 3.962 1.924 3.964 4.145v67.6c-.002 2.221-1.759 4.031-3.964 4.144l-.215.006H15.93c-2.305-.002-4.176-1.857-4.179-4.15V56.9c0-.857.7-1.55 1.56-1.55.86 0 1.56.693 1.56 1.55v18.2l.004.103c.024.24.131.465.305.638l.078.07c.188.153.425.24.672.24h47.14l.105-.007c.243-.024.47-.13.644-.303l.07-.076c.155-.187.24-.422.24-.665V7.5l-.005-.104a1.04 1.04 0 00-.234-.56l-.07-.077a1.065 1.065 0 00-.645-.304l-.105-.005h-3.678v2.415a4.148 4.148 0 012.587 4.366l-.029.188a4.17 4.17 0 01-4.118 3.447 4.17 4.17 0 01-4.118-3.447 4.146 4.146 0 012.558-4.553V6.45H41.06v2.416a4.147 4.147 0 012.587 4.365l-.029.188a4.17 4.17 0 01-4.118 3.447 4.17 4.17 0 01-4.118-3.447 4.146 4.146 0 012.558-4.553V6.45H22.727v2.416a4.148 4.148 0 012.587 4.366l-.029.187a4.17 4.17 0 01-4.118 3.447 4.172 4.172 0 01-4.082-3.262l-.036-.185a4.147 4.147 0 012.558-4.554V6.45H15.93c-.247 0-.484.085-.672.238l-.077.07c-.199.198-.31.464-.31.742v24.7c0 .36-.127.707-.354.983l-.104.114a1.565 1.565 0 01-2.09.102l-.114-.102a1.547 1.547 0 01-.458-1.097V7.5l.006-.214c.114-2.193 1.94-3.934 4.173-3.936h3.678V2.3c0-.858.7-1.55 1.56-1.55.86 0 1.56.692 1.56 1.55v1.05H37.94V2.3c0-.858.7-1.55 1.56-1.55.86 0 1.56.692 1.56 1.55v1.05h15.213V2.3c0-.858.7-1.55 1.56-1.55zM39.5 11.65c-.587 0-1.06.472-1.06 1.05 0 .578.473 1.05 1.06 1.05l.105-.005c.242-.024.47-.131.644-.304l.07-.077c.155-.187.24-.42.24-.664l-.005-.107a1.055 1.055 0 00-1.054-.943zm18.333 0c-.587 0-1.06.472-1.06 1.05 0 .578.473 1.05 1.06 1.05l.105-.005c.243-.024.471-.131.645-.304l.07-.077c.154-.186.24-.42.24-.664l-.005-.107a1.056 1.056 0 00-1.055-.943zm-36.666 0c-.587 0-1.06.472-1.06 1.05 0 .578.473 1.049 1.059 1.049.282 0 .552-.11.75-.308l.07-.077c.154-.187.24-.42.24-.664l-.005-.107a1.056 1.056 0 00-1.054-.943z" fill="#ED1C24" stroke="#ED1C24" stroke-width=".5"/><path d="M60.68 67.118c.866 0 1.57.701 1.57 1.567 0 .865-.704 1.565-1.57 1.565H30.3c-.866 0-1.57-.7-1.57-1.565a1.57 1.57 0 011.57-1.567h30.38zM5.213 31.513l.148.014c.042.007.066.011.091.013h.001a4.33 4.33 0 012.883 1.372v.001L19.81 45.297l.325.366a10.519 10.519 0 012.48 6.574l.87.865.104.115c.098.118.178.25.238.393l.053.146a1.563 1.563 0 01-.288 1.451l-.104.114a1.57 1.57 0 01-.37.274l-.14.066a1.573 1.573 0 01-.448.11l-.155.008a1.56 1.56 0 01-.456-.068l-.146-.053a1.572 1.572 0 01-.508-.34l-.9-.896a10.658 10.658 0 01-6.753-2.995l-.36-.368-9.36-10.101h0v-.001l-1.979-2.136a4.332 4.332 0 01.121-6.034l.161-.152c.165-.148.34-.284.527-.404h.002l.283-.169a4.54 4.54 0 012.199-.55h.006zM60.68 52.644c.866 0 1.57.701 1.57 1.567 0 .865-.704 1.565-1.57 1.565H30.3c-.866 0-1.57-.7-1.57-1.565a1.57 1.57 0 011.57-1.566h30.38zM7.226 39.939l8.334 8.996.21.217a7.505 7.505 0 003.592 1.982 7.4 7.4 0 00-1.668-3.497l-.191-.215-8.54-9.216-1.737 1.733zm17.57-5.69c.41-.056.825.052 1.156.299l.12.099a1.565 1.565 0 01.203 2.081l-.002.003-3.962 5.262a1.57 1.57 0 01-.978.602l-.167.02a1.574 1.574 0 01-.499-.044l-.161-.05a1.57 1.57 0 01-.562-.36v0l-2.64-2.632-.003-.003a1.564 1.564 0 01-.444-1.102l.01-.153a1.56 1.56 0 01.45-.942l.115-.102a1.574 1.574 0 011.973-.016l.115.1.003.003 1.362 1.356 2.877-3.82v-.001l.101-.118c.246-.262.575-.433.933-.482zm35.884 3.923c.866 0 1.57.7 1.57 1.565 0 .866-.704 1.567-1.57 1.567H30.3a1.57 1.57 0 01-1.57-1.567c0-.865.704-1.565 1.57-1.565h30.38zM4.946 34.656a1.237 1.237 0 00-.339.1l-.156.088c-.15.097-.275.226-.369.376l-.083.157a1.217 1.217 0 00-.086.692l.042.172c.054.169.145.324.267.455l.87.94 1.737-1.733-.802-.866h0a1.213 1.213 0 00-.288-.23l-.11-.057a1.221 1.221 0 00-.479-.106h-.026l-.178.012zm20.26-14.894l.201.037c.2.05.387.14.553.264l.156.133a1.564 1.564 0 01.27 1.888l-.113.172-3.962 5.263a1.57 1.57 0 01-.396.37l-.158.09c-.164.082-.34.134-.52.155l-.182.01a1.574 1.574 0 01-.996-.355l-.115-.103-2.641-2.631-.002-.003a1.564 1.564 0 01-.444-1.103l.01-.153c.037-.355.195-.687.45-.941l.115-.104c.276-.226.624-.352.984-.355l.153.006c.306.028.596.144.836.334l.115.1.003.004 1.36 1.355 2.879-3.819.133-.156c.144-.146.316-.263.506-.344l.194-.068c.198-.055.405-.07.61-.046zm35.474 3.935c.866 0 1.57.7 1.57 1.566 0 .865-.704 1.566-1.57 1.566H30.3a1.57 1.57 0 01-1.57-1.566c0-.866.704-1.566 1.57-1.566h30.38z" fill="#ED1C24" stroke="#ED1C24" stroke-width=".5"/></svg>