<svg width="250" height="56" fill="none" xmlns="http://www.w3.org/2000/svg"><path d="M99.525 11.088a6.062 6.062 0 012.367 2.33c.57.997.855 2.124.855 3.384 0 1.26-.285 2.389-.855 3.384a6.047 6.047 0 01-2.367 2.33c-1.008.56-2.149.838-3.42.838-1.164 0-2.211-.203-3.14-.611a5.97 5.97 0 01-2.315-1.764l2.251-2.053c.84.985 1.847 1.477 3.023 1.477.757 0 1.4-.207 1.937-.622.532-.413.902-.986 1.105-1.718h-4.552v-2.628h4.517c-.204-.695-.57-1.242-1.098-1.638-.529-.397-1.165-.595-1.909-.595-1.176 0-2.183.492-3.023 1.476l-2.25-2.05a5.962 5.962 0 012.313-1.765c.93-.408 1.977-.613 3.14-.613 1.272 0 2.413.28 3.42.838zm17.441-.585v12.6h-3.51v-9.775h-3.618l-.071 2.053c-.061 1.8-.208 3.263-.442 4.392-.234 1.128-.633 2-1.196 2.618-.565.619-1.364.927-2.395.927a7.03 7.03 0 01-1.62-.215l.198-2.916c.155.036.318.053.486.053.468 0 .828-.185 1.08-.558.251-.371.432-.89.541-1.555.107-.667.18-1.534.215-2.602l.18-5.022h10.152zm13.716 9.846v2.753h-10.117v-12.6h9.883v2.754h-6.355v2.124h5.598v2.664h-5.598v2.305h6.589zm8.028-2.07h-1.621v4.823h-3.546v-12.6h3.546v4.896h1.71l3.005-4.895h3.746l-3.942 6.084 3.978 6.515h-4.016l-2.86-4.824zm18.917-4.95h-3.852v9.773h-3.51V13.33h-3.87v-2.826h11.232v2.826zm9.738 3.194c.373-.318.558-.77.558-1.359 0-.587-.185-1.043-.558-1.368-.371-.323-.925-.486-1.656-.486h-1.98v3.691h1.98c.731 0 1.285-.16 1.656-.478zm1.53-5.453c.84.378 1.488.918 1.944 1.619.456.704.685 1.528.685 2.475 0 .95-.229 1.77-.685 2.466-.456.697-1.104 1.233-1.944 1.61-.839.38-1.83.569-2.97.569h-2.196v3.294h-3.564v-12.6h5.76c1.14 0 2.131.19 2.97.567zm13.23 8.883c.516-.3.923-.723 1.224-1.269.3-.546.45-1.173.45-1.882 0-.708-.15-1.334-.45-1.88a3.246 3.246 0 00-1.224-1.27 3.376 3.376 0 00-1.728-.45c-.636 0-1.212.15-1.727.45-.516.3-.925.723-1.225 1.27-.3.546-.45 1.172-.45 1.88 0 .71.15 1.336.45 1.882.3.546.709.968 1.225 1.269.515.3 1.091.45 1.727.45.635 0 1.212-.15 1.728-.45zm-5.319 2.556a6.35 6.35 0 01-2.501-2.34c-.608-.997-.911-2.119-.911-3.367 0-1.247.303-2.37.911-3.366a6.358 6.358 0 012.501-2.34c1.062-.563 2.259-.845 3.591-.845 1.331 0 2.528.282 3.591.845a6.374 6.374 0 012.502 2.34c.606.996.909 2.12.909 3.366 0 1.248-.303 2.37-.909 3.367a6.367 6.367 0 01-2.502 2.34c-1.063.564-2.26.846-3.591.846-1.332 0-2.529-.282-3.591-.846zM94.331 44.117a6.263 6.263 0 01-2.475-2.33c-.6-.996-.899-2.124-.899-3.384 0-1.261.299-2.389.9-3.384a6.25 6.25 0 012.475-2.33c1.05-.56 2.235-.838 3.555-.838 1.152 0 2.19.203 3.113.611a5.987 5.987 0 012.305 1.764l-2.268 2.053c-.817-.985-1.806-1.477-2.97-1.477-.684 0-1.294.15-1.828.45-.534.3-.947.724-1.24 1.269-.296.547-.443 1.173-.443 1.882 0 .708.147 1.334.442 1.88.294.547.707.97 1.241 1.27.534.3 1.144.45 1.827.45 1.165 0 2.154-.492 2.971-1.477l2.268 2.051A5.973 5.973 0 01101 44.342c-.923.407-1.96.612-3.113.612-1.32 0-2.505-.279-3.555-.837zm19.125-2.565c.515-.3.923-.722 1.224-1.268.3-.547.45-1.173.45-1.882 0-.708-.15-1.334-.45-1.881a3.252 3.252 0 00-1.224-1.269 3.374 3.374 0 00-1.728-.45c-.636 0-1.212.15-1.728.45-.516.3-.923.723-1.223 1.269-.301.547-.451 1.173-.451 1.881 0 .709.15 1.335.451 1.882.3.546.707.968 1.223 1.268.516.3 1.092.45 1.728.45.636 0 1.212-.15 1.728-.45zm-5.318 2.557a6.37 6.37 0 01-2.504-2.34c-.605-.997-.908-2.12-.908-3.367 0-1.247.303-2.37.908-3.366a6.366 6.366 0 012.504-2.34c1.061-.563 2.259-.846 3.59-.846s2.529.283 3.591.846a6.358 6.358 0 012.501 2.34c.607.996.91 2.119.91 3.366 0 1.248-.303 2.37-.91 3.367a6.362 6.362 0 01-2.501 2.34c-1.062.563-2.26.845-3.591.845-1.331 0-2.529-.282-3.59-.845zm23.516-2.16v2.753h-10.117v-12.6h9.883v2.754h-6.354v2.123h5.599v2.665h-5.599v2.304h6.588zm7.253-2.233c-.168.936-.425 1.656-.774 2.161h4.77v-6.95h-3.618l-.053 1.37c-.049 1.344-.157 2.483-.325 3.42zm9.217 2.161v5.363h-3.259v-2.537h-8.064v2.537h-3.276v-5.363h.451c.743-.013 1.268-.523 1.575-1.531.305-1.007.495-2.46.566-4.356l.144-3.888h10.153v9.775h1.71zm2.608-9.775h3.51V39.5l5.204-7.398h3.346v12.601h-3.509v-7.382l-5.184 7.382h-3.367v-12.6zm27.648 0v12.601h-3.565v-4.914h-4.859v4.914h-3.563v-12.6h3.563v4.733h4.859v-4.734h3.565zm3.599 0h3.51V39.5l5.203-7.398h3.347v12.601h-3.51v-7.382l-5.183 7.382h-3.367v-12.6zm25.812 2.826h-3.852v9.774h-3.51v-9.774h-3.87v-2.825h11.232v2.825zm12.654 7.02v2.754h-10.117v-12.6h9.883v2.754h-6.353v2.123h5.596v2.665h-5.596v2.304h6.587zm14.688-9.846v12.601h-3.51v-9.775h-3.618l-.073 2.053c-.06 1.8-.207 3.263-.441 4.391-.234 1.128-.632 2.001-1.195 2.619-.565.618-1.364.926-2.395.926-.48 0-1.02-.07-1.621-.214l.199-2.917c.154.036.318.054.485.054.469 0 .828-.186 1.08-.559.252-.37.433-.89.541-1.555.108-.667.18-1.533.216-2.601l.179-5.023h10.153zm10.754 9.558c.354-.324.531-.78.531-1.368 0-1.091-.654-1.638-1.963-1.638h-2.212v3.492h2.212c.601 0 1.078-.161 1.432-.486zm2.853-4.509c.84.691 1.26 1.714 1.26 3.07 0 1.452-.469 2.562-1.404 3.329-.935.768-2.238 1.152-3.907 1.152h-5.958V32.103h3.512v4.014h2.914c1.548 0 2.742.345 3.583 1.034z" fill="#fff"/><path fill-rule="evenodd" clip-rule="evenodd" d="M21.591 13.828C11.558 13.208 3.114 16.423.694 22.64c-.602 1.53-.776 3.796-.66 5.616.077 1.355.408 2.789.93 3.757 3.138 5.83 8.948 9.665 17.974 9.723 4.086.02 8.405-.039 11.601-1.414.543-1.55 1.182-3.079 1.647-4.648.058-.193.215-.424-.097-.561-.155-.058-.388-.29-.465-.136-2.401 3.641-6.47 6.217-12.066 6.178-8.64-.058-13.248-4.841-14.14-13.19-.89-8.367 6.12-13.615 14.14-13.19 7.184.369 8.908 2.054 10.575 4.958l.348.136h.678v-.465l-.097-1.898-.29-1.452c-2.382-1.24-5.405-2.053-9.181-2.227zm55.528 4.029C72.297 5.46 55.465-.95 35.479.29c-7.497.349-13.54 1.995-18.284 4.454-.1.052-.736 7.322-.736 7.528.58-.044 2.014-.187 2.014-.187 3.331-5.83 6.778-9.161 21.052-9.916C55 1.374 68.558 11.156 67.822 26.882c0 0-4.11-2.204-6.131-2.495-.387-.055-.778-.095-1.167-.063a6.044 6.044 0 00-1.038.21c-2.073.56-4.126 1.244-6.077 2.143-1.914.88-3.773 1.887-5.748 2.626l-3.002 1.123.038-10.013 1.22 1.142v-1.49l-1.684-2.44-1.764 2.4v1.434l1.24-1.027-.038 9.994c-3.261-1.26-6.387-2.829-9.631-4.134-1.942-.781-3.883-1.558-5.97-1.842-2.24-.303-8.119 3.867-8.203 3.866 1.31.024 2.534-.474 3.782-.801 1.342-.355 2.75-.58 4.136-.374 2.71.401 5.27 1.615 7.83 2.533 2.663.956 5.341 1.866 8.037 2.727l-.02 5.965-1.163 1.048v2.265l1.628-.716 1.646.794v-2.285l-1.123-1.087.02-5.983 2.478-.756 4.125-1.433c2.76-.952 5.485-2.14 8.33-2.816.998-.237 2.032-.397 3.059-.314.971.079 1.95.419 2.89.67.211.058 2.057.767 2.183.64-.019.02-.019.039-.019.058-1.762 16.637-10.941 26.147-28.16 26.283-10.744.073-18.656-4.702-23.48-11.576-.505-.053-1.745-.255-1.745-.255s2.294 7.065 3.378 10.146c6.371 2.75 14.952 2.846 23.086 2.808 17.993-.078 29.537-7.748 35.792-19.35 1.046-1.917 1.705-4.783 1.879-7.494.213-3.603-.155-8.136-1.317-11.156z" fill="#ED1C24"/></svg>