<svg width="28" height="24" fill="none" xmlns="http://www.w3.org/2000/svg"><path d="M1.719 10.452s12.383-5.268 16.678-7.124c1.647-.742 7.23-3.116 7.23-3.116s2.577-1.039 2.362 1.484c-.071 1.039-.644 4.675-1.217 8.608-.859 5.565-1.79 11.65-1.79 11.65s-.142 1.706-1.36 2.003c-1.216.297-3.22-1.038-3.578-1.335-.287-.223-5.37-3.562-7.23-5.195-.501-.445-1.074-1.335.071-2.374 2.577-2.449 5.655-5.491 7.516-7.42.86-.891 1.718-2.969-1.86-.446-5.083 3.636-10.094 7.05-10.094 7.05s-1.145.742-3.292.074C3.007 13.643.502 12.752.502 12.752s-1.718-1.113 1.217-2.3z" fill="#fff"/></svg>