<svg width="38" height="21" fill="none" xmlns="http://www.w3.org/2000/svg"><path fill-rule="evenodd" clip-rule="evenodd" d="M36.701 2.118c.255-.774 0-1.343-1.21-1.343h-4.005c-1.018 0-1.488.492-1.742 1.033 0 0-2.037 4.527-4.921 7.468-.933.851-1.358 1.122-1.867 1.122-.254 0-.623-.27-.623-1.045V2.118c0-.929-.295-1.343-1.144-1.343h-6.293c-.636 0-1.018.431-1.018.84 0 .88 1.442 1.083 1.59 3.56v5.378c0 1.18-.233 1.393-.742 1.393-1.358 0-4.66-4.547-6.618-9.75-.384-1.012-.769-1.42-1.792-1.42H2.31c-1.144 0-1.373.49-1.373 1.032 0 .968 1.358 5.766 6.322 12.111 3.309 4.334 7.97 6.683 12.213 6.683 2.545 0 2.86-.522 2.86-1.42v-3.276c0-1.043.241-1.252 1.047-1.252.594 0 1.612.271 3.988 2.36 2.715 2.477 3.163 3.588 4.69 3.588h4.004c1.145 0 1.717-.522 1.387-1.552-.362-1.026-1.658-2.515-3.378-4.28-.933-1.006-2.333-2.089-2.757-2.63-.594-.697-.425-1.007 0-1.626 0 0 4.878-6.268 5.387-8.396z" fill="#fff"/></svg>